BEYOND.(2011).1080P.X264. MKV DTS NL.Subs TBS

Beyond (2011) 


Verenigde Staten
Thriller

geregisseerd door Josef Rusnak
met Jon Voight, Teri Polo en Dermot Mulroney

John Koski is een rechercheur die onderzoek doet naar de ontvoering van het nichtje van de politiecommissaris. Hij wordt hierin bijgestaan door Farley, een beroemde helderziende die beweert het meisje gezien te hebben in visioenen. Naarmate het onderzoek vordert, komen er steeds vreemdere dingen aan het licht. Koski trekt zijn eigen geestelijke gezondheid in twijfel en ontdekt een duister geheim over zichzelf...

Storyline

A detective teams with a tabloid psychic to track down a missing child. 
 
http://www.imdb.com/title/tt1800671/ 
http://www.moviemeter.nl/film/80792


Complete name : (2011).1080P.X264.NL.SUBBED.mkv
Format : Matroska
Format version : Version 2
File size : 8.34 GiB
Duration : 1h 30mn
Overall bit rate mode : Variable
Overall bit rate : 13.3 Mbps
Encoded date : UTC 2012-03-28 06:31:30
Writing application : mkvmerge v3.3.0
Writing library : libebml v0.8.0 + libmatroska v0.9.0

Video
ID : 1
Format : AVC
Format/Info : Advanced Video Codec
Format profile : High@L4.0
Format settings, CABAC : Yes
Format settings, ReFrames : 3 frames
Codec ID : V_MPEG4/ISO/AVC
Duration : 1h 30mn
Bit rate mode : Variable
Bit rate : 11.1 Mbps
Maximum bit rate : 25.0 Mbps
Width : 1 920 pixels
Height : 802 pixels
Display aspect ratio : 2.40:1
Frame rate : 23.976 fps
Color space : YUV
Chroma subsampling : 4:2:0
Bit depth: 8 bits
Scan type : Progressive
Bits/(Pixel*Frame) : 0.301
Stream size : 6.82 GiB (82%)
Writing library : x264 core 65 r1066M 045ae40
Language : English
Default : Yes
Forced : No

Audio #1
ID : 2
Format : DTS
Format/Info : Digital Theater Systems
Codec ID : A_DTS
Duration : 1h 30mn
Bit rate mode : Constant
Bit rate : 1 510 Kbps
Channel(s) : 6 channels
Channel positions: Front: L C R, Side: L R, LFE
Sampling rate : 48.0 KHz
Bit depth : 24 bits
Compression mode : Lossy
Stream size : 972 MiB (11%)
Title : DTS
Language : English
Default : Yes
Forced : No

Audio #2
ID : 3
Format : AC-3
Format/Info : Audio Coding 3
Mode extension : CM (complete main)
Codec ID : A_AC3
Duration : 1h 30mn
Bit rate mode : Constant
Bit rate: 640 Kbps
Channel(s) : 6 channels
Channel positions : Front: L C R, Side: L R, LFE
Sampling rate : 48.0 KHz
Bit depth : 16 bits
Compression mode : Lossy
Stream size : 412 MiB (5%)
Title : AC3
Language : English
Default : No
Forced : No

Text #1
ID : 4
Format : UTF-8
Codec ID : S_TEXT/UTF8
Codec ID/Info : UTF-8 Plain Text
Title : SUBTITLE
Language : DutchRetail
Default : Yes
Forced : No

Text #2
ID : 5
Format : VobSub
Muxing mode : zlib
Codec ID : S_VOBSUB
Codec ID/Info : The same subtitle format used on DVDs
Title : SUBTITLE-VOB
Language : Dutch Retail
Default : No
Forced : No

All credits for Bradje


Enjoy the Movie

Kom ook eens kijken :
 
http://www.black-sam.org